<?xml version="1.0" encoding="UTF-8"?><svg id="Mine" xmlns="http://www.w3.org/2000/svg" viewBox="0 0 1024 1024"><defs><style>.cls-1{fill:#485561;stroke:#fff;stroke-miterlimit:10;}.cls-2{fill:#2f404b;}</style></defs><path class="cls-1" d="M801.57,443c0,167.6-134.47,303.47-300.34,303.47s-308.27-133.83-308.27-301.43S335.36,139.53,501.23,139.53s300.34,135.87,300.34,303.47Z"/><g id="Outer_Shell"><g id="Inner_Surface"><path class="cls-2" d="M945.63,437.65l-96.51-22.33c-7.47-54.59-27.54-104.92-57.25-147.96l75.28-98.54c6.42-16.47-7.32-30.25-23.81-23.89l-109.86,57.58c-51.25-43.94-115.85-72.77-187.37-79.85.19-.14.29-.21.29-.21l-18.34-95.18c-8.35-13.21-27.94-11.55-33.95,2.86l-16.52,92.32s.05.05.12.12c-72.24,6.86-137.27,35.5-188.59,79.47l-110.12-58.02c-17.32-4.12-28.85,11.32-19.99,26.76l73.1,94.46c-30.16,43.52-50.3,94.72-57.29,150.56l-98.55,22.69c-15.69,8.14-14.45,27.57,2.14,33.66l95.42,23.36c5.67,57.21,24.95,109.2,54.72,153.09l-70.85,95.18c-6.39,16.48,7.37,30.24,23.85,23.85l102.56-56.63c51.05,44.11,116.49,72.6,189.82,79.47v9.88c-37.38,15.4-63.76,52.72-63.76,96.34,0,57.38,45.64,103.9,101.94,103.9s101.94-46.52,101.94-103.9c0-43.7-26.48-81.07-63.97-96.42v-10.41c72.61-7.88,138.21-36.35,189.6-80.08l105.23,59.9c17.18,4.14,28.99-11.33,20.46-26.81l-69.86-94.63c30.56-44.04,50.25-96.29,55.46-154.06l97.18-22.88c15.59-8.32,14.14-27.73-2.52-33.63ZM572.06,896.31c0,33.14-26.77,60-59.8,60s-59.8-26.86-59.8-60c0-20.49,10.24-38.56,25.86-49.39,1.57,17.85,16.59,31.85,34.88,31.85s32.6-13.36,34.75-30.61c14.64,10.94,24.12,28.43,24.12,48.15ZM484.75,708.36c-84.35,0-163.09-25.03-214.83-82.46-43.91-48.74-73.18-124.17-67.51-194.05,2.95-36.35,28.64-123.97,86.89-186.81,59.6-64.3,161.13-91.68,177.41-92.89,0,0,.73,8.12,4.47,11.35,4.02,3.47,9.08,2.41,11.01,2.41,92,0,165.01,19.73,229.14,94.96,53.67,62.96,55.76,108.38,55.76,170.99,0,152.71-126.41,276.51-282.34,276.51Z"/></g></g><g id="Spikes"><path class="cls-2" d="M347.33,237.12c-14.67-4.58-28.43,8.27-23.85,22.94l48.06,94.09c17.05,17.05,44.08,6.84,60.2-9.28,16.12-16.12,24.19-41.02,7.14-58.06l-91.55-49.68Z"/><path class="cls-2" d="M682.66,235.75l-95.65,50.8c-17.05,17.05-11.3,41.33,4.82,57.46,13.3,13.3,45.48,26.94,62.52,9.89l51.24-93.84c4.58-14.67-8.27-28.89-22.94-24.31Z"/><path class="cls-2" d="M652.99,518.56c-17.15-17.15-44.24-7-60.36,9.13-16.12,16.12-24.14,41.07-6.99,58.22l88.76,48.93c14.73,4.64,30.78-10.5,26.14-25.22l-47.56-91.06Z"/><path class="cls-2" d="M371.51,520.79l-47.13,90.63c-4.58,14.67,9.18,28.43,23.85,23.85l90.63-47.13c17.05-17.05,6.84-44.08-9.29-60.2-16.12-16.12-41.02-24.19-58.06-7.14Z"/></g></svg>