<?xml version="1.0" encoding="UTF-8"?><svg id="Destroyer_Shape" xmlns="http://www.w3.org/2000/svg" viewBox="0 0 971.58 580"><g id="Destroyer.tif"><path d="M498.5,4h0c2.49,0,4.5,2.01,4.5,4.5v27c0,2.49,2.01,4.5,4.5,4.5h27c2.49,0,4.5,2.01,4.5,4.5v9c0,2.49-2.01,4.5-4.5,4.5h-18c-2.49,0-4.5,2.01-4.5,4.5v36c0,2.49,2.01,4.5,4.5,4.5h45c2.49,0,4.5,2.01,4.5,4.5v18c0,2.49-2.01,4.5-4.5,4.5h-45c-2.49,0-4.5,2.01-4.5,4.5v54c0,2.49,2.01,4.5,4.5,4.5h36c2.49,0,4.5,2.01,4.5,4.5v36c0,2.49-2.01,4.5-4.5,4.5h-27c-2.49,0-4.5,2.01-4.5,4.5v9c0,2.49,2.01,4.5,4.5,4.5h108c2.49,0,4.5,2.01,4.5,4.5v10.72c0,1.7-.96,3.26-2.49,4.02l-12.28,6.14c-1.89.94-2.86,3.07-2.35,5.12l25.27,101.09c.5,2,2.3,3.41,4.37,3.41h9.99c2.49,0,4.5-2.01,4.5-4.5v-54.6c0-2.24,1.65-4.14,3.86-4.45l55.93-7.99c1.92-.27,3.8.71,4.66,2.44l6.04,12.08c.89,1.79,2.86,2.77,4.83,2.41l90.37-16.43c2.76-.5,5.3,1.62,5.3,4.43v8.92c0,2.15-1.51,3.99-3.62,4.41l-82.77,16.55c-2.1.42-3.62,2.27-3.62,4.41v18.44c0,2.63,2.24,4.7,4.86,4.49l213.17-17.05c3.27-.26,5.71,2.93,4.59,6.01-10.98,30.26-72.34,165.54-92.57,206.91-.76,1.55-2.32,2.53-4.05,2.52-76.86-.49-755.87-.69-807.02-.04-1.81.02-3.45-1.04-4.17-2.7L1.76,442.3c-1.3-2.97.88-6.3,4.12-6.3h106.61c2.06,0,3.86-1.41,4.37-3.41l7.3-29.18c.5-2,2.3-3.41,4.37-3.41h109.8c2.15,0,3.99-1.51,4.41-3.62l7.55-37.77c.42-2.1,2.27-3.62,4.41-3.62h36.81c2.49,0,4.5-2.01,4.5-4.5v-36c0-2.49,2.01-4.5,4.5-4.5h18c2.49,0,4.5-2.01,4.5-4.5v-81c0-2.49,2.01-4.5,4.5-4.5h36c2.49,0,4.5,2.01,4.5,4.5v81c0,2.49,2.01,4.5,4.5,4.5h36c2.49,0,4.5-2.01,4.5-4.5v-45c0-2.49,2.01-4.5,4.5-4.5h54c2.49,0,4.5-2.01,4.5-4.5v-27c0-2.49-2.01-4.5-4.5-4.5h-4.5v-13.5c0-2.49,2.01-4.5,4.5-4.5h0c2.49,0,4.5-2.01,4.5-4.5v-63c0-2.49-2.01-4.5-4.5-4.5h-36c-2.49,0-4.5-2.01-4.5-4.5v-18c0-2.49,2.01-4.5,4.5-4.5h54c2.49,0,4.5-2.01,4.5-4.5v-36c0-2.49-2.01-4.5-4.5-4.5h-27c-2.49,0-4.5-2.01-4.5-4.5v-9c0-2.49,2.01-4.5,4.5-4.5h27c2.49,0,4.5-2.01,4.5-4.5V8.5c0-2.49,2.01-4.5,4.5-4.5Z"/></g></svg>