<?xml version="1.0" encoding="UTF-8"?>
<svg id="Marked" xmlns="http://www.w3.org/2000/svg" version="1.1" viewBox="0 0 1024 1024">
  <!-- Generator: Adobe Illustrator 29.7.1, SVG Export Plug-In . SVG Version: 2.1.1 Build 8)  -->
  <defs>
    <style>
      .st0 {
        fill: #eb212c;
      }
    </style>
  </defs>
  <g id="Marked1" data-name="Marked">
    <path class="st0" d="M512,75.12c-149.11,0-268.99,120.88-268.99,269.99,0,66.39,38.62,129.45,62.71,174.9,115.96,217.7,165.65,343.07,192.74,486.22,2.43,12.84,24.82,12.91,27.25.07,26.97-142.1,84.57-286.66,194.53-486.3,26.7-56.74,61.73-109.62,61.73-174.9,0-149.11-120.88-269.99-269.99-269.99ZM512,523.45c-100.19,0-181.41-81.22-181.41-181.41s81.22-181.41,181.41-181.41,181.41,81.22,181.41,181.41-81.22,181.41-181.41,181.41Z"/>
    <circle class="st0" cx="512" cy="340.83" r="116.41"/>
  </g>
</svg>